#!OML:ASF F:\VICON\USERDATA\INSTALL\rory3\rory3.ASF
:FULLY-SPECIFIED
:DEGREES
688
root 5.29722 16.904 1.89025 7.42432 -15.1464 -6.99012
lowerback 21.614 -0.335997 4.1032
upperback 5.42043 0.481221 1.2713
thorax -6.12404 0.164187 -1.09144
lowerneck -15.0117 -0.565853 -2.19894
upperneck 38.0198 0.176897 -1.3576
head 16.0615 -0.509909 -0.187492
rclavicle -2.50469e-014 3.77691e-014
rhumerus -34.0695 -8.01389 -17.3877
rradius 34.5893
rwrist 4.68971
rhand -19.9126 -44.3898
rfingers 7.12502
rthumb 6.42423 -74.2724
lclavicle -2.50469e-014 3.77691e-014
lhumerus -35.2322 7.55935 12.574
lradius 27.8969
lwrist 15.1216
lhand -26.0496 -28.2495
lfingers 7.12502
lthumb 0.497845 1.72966
rfemur -100.801 0.621014 27.3843
rtibia 95.4028
rfoot 48.2615 1.99259
rtoes -4.70097
lfemur -29.1825 5.52286 -24.2655
ltibia 42.2133
lfoot -17.8953 10.5074
ltoes 15.1753
689
root 5.29899 16.9042 1.89345 7.35659 -15.1329 -6.8406
lowerback 21.6749 -0.329931 3.98428
upperback 5.37964 0.466981 1.24865
thorax -6.20213 0.156941 -1.04471
lowerneck -14.9729 -0.611101 -2.42405
upperneck 38.1094 0.0785775 -1.09548
head 16.0985 -0.547962 -0.0515071
rclavicle 5.20816e-014 1.31198e-014
rhumerus -34.1805 -7.84999 -17.3784
rradius 34.8784
rwrist 4.272
rhand -19.8381 -44.9124
rfingers 7.12502
rthumb 6.49611 -74.7928
lclavicle 5.20816e-014 1.31198e-014
lhumerus -35.2616 7.43827 12.6333
lradius 27.9025
lwrist 15.4313
lhand -25.8469 -29.1841
lfingers 7.12502
lthumb 0.693642 0.794474
rfemur -100.796 0.529354 27.248
rtibia 95.4685
rfoot 48.2122 1.87239
rtoes -4.41327
lfemur -29.133 5.50197 -24.4341
ltibia 42.2069
lfoot -17.9055 10.5668
ltoes 15.0585
690
root 5.29839 16.9011 1.88996 7.35225 -15.1192 -6.83921
lowerback 21.7082 -0.352651 3.95734
upperback 5.42322 0.431094 1.24546
thorax -6.17386 0.140599 -1.02345
lowerneck -15.0831 -0.56362 -2.23427
upperneck 38.0323 0.171388 -1.29959
head 16.0853 -0.509779 -0.157458
rclavicle 3.37934e-015 -1.19271e-014
rhumerus -34.0144 -8.24565 -17.3646
rradius 34.8223
rwrist 4.10126
rhand -19.6975 -45.4784
rfingers 7.12502
rthumb 6.63181 -75.3545
lclavicle 3.37934e-015 -1.19271e-014
lhumerus -35.2801 7.38701 12.7051
lradius 27.9756
lwrist 15.6708
lhand -26.2134 -29.9148
lfingers 7.12502
lthumb 0.339592 0.0646995
rfemur -100.765 0.545579 27.2686
rtibia 95.4578
rfoot 48.184 2.061
rtoes -5.1099
lfemur -29.1865 5.55409 -24.4328
ltibia 42.2296
lfoot -17.9133 10.5262
ltoes 15.0407
691
root 5.29728 16.8989 1.88682 7.40872 -15.0768 -6.93356
lowerback 21.6876 -0.391114 4.01684
upperback 5.43081 0.395703 1.2853
thorax -6.15614 0.12326 -1.0049
lowerneck -15.0656 -0.503373 -1.99936
upperneck 37.9004 0.315953 -1.64019
head 16.0142 -0.461752 -0.320179
rclavicle -1.74931e-014 1.27222e-014
rhumerus -33.7936 -8.40628 -17.3659
rradius 34.6783
rwrist 4.00856
rhand -19.3747 -45.7288
rfingers 7.12502
rthumb 6.94341 -75.5949
lclavicle -1.74931e-014 1.27222e-014
lhumerus -35.3844 7.36999 12.7567
lradius 28.1645
lwrist 15.8246
lhand -25.4002 -30.1832
lfingers 7.12502
lthumb 1.12503 -0.206442
rfemur -100.75 0.560179 27.3781
rtibia 95.4475
rfoot 48.0887 2.23809
rtoes -5.71266
lfemur -29.2819 5.63364 -24.3316
ltibia 42.2887
lfoot -17.9379 10.4092
ltoes 14.9897
692
root 5.29516 16.8955 1.88753 7.43386 -15.1173 -6.94045
lowerback 21.6571 -0.36366 3.98927
upperback 5.41534 0.425402 1.29925
thorax -6.15628 0.137796 -0.981897
lowerneck -14.9789 -0.493248 -1.95775
upperneck 37.8426 0.346875 -1.72446
head 15.9639 -0.453504 -0.357484
rclavicle -6.55989e-015 1.19271e-014
rhumerus -33.7805 -8.35972 -17.3506
rradius 34.4469
rwrist 4.35107
rhand -19.6752 -45.1284
rfingers 7.12502
rthumb 6.65336 -75.0039
lclavicle -6.55989e-015 1.19271e-014
lhumerus -35.4318 7.43234 12.7473
lradius 28.2633
lwrist 15.8574
lhand -24.6095 -29.3572
lfingers 7.12502
lthumb 1.88875 0.614184
rfemur -100.758 0.630464 27.3805
rtibia 95.4542
rfoot 48.0339 2.22041
rtoes -5.79496
lfemur -29.354 5.73912 -24.3272
ltibia 42.3619
lfoot -17.9444 10.3438
ltoes 14.9624
693
root 5.29272 16.8908 1.88674 7.45391 -15.1915 -6.89652
lowerback 21.6088 -0.325138 3.90813
upperback 5.40097 0.455542 1.29444
thorax -6.14649 0.153296 -0.948737
lowerneck -14.8509 -0.474176 -1.93135
upperneck 37.755 0.392684 -1.80446
head 15.8886 -0.440173 -0.386961
rclavicle 4.11484e-014 -2.18663e-014
rhumerus -33.7986 -8.46967 -17.3021
rradius 34.1784
rwrist 4.90153
rhand -20.1707 -44.457
rfingers 7.12502
rthumb 6.17502 -74.347
lclavicle 4.11484e-014 -2.18663e-014
lhumerus -35.446 7.4784 12.7405
lradius 28.1089
lwrist 15.6226
lhand -25.063 -29.2809
lfingers 7.12502
lthumb 1.45075 0.693945
rfemur -100.805 0.733916 27.3296
rtibia 95.4303
rfoot 48.0882 2.14177
rtoes -6.28769
lfemur -29.4389 5.85564 -24.3799
ltibia 42.4104
lfoot -17.9117 10.3368
ltoes 14.8387
694
root 5.29363 16.8899 1.88738 7.44007 -15.1704 -6.8422
lowerback 21.5617 -0.349215 3.87307
upperback 5.4126 0.413009 1.27997
thorax -6.1115 0.133889 -0.933191
lowerneck -14.8299 -0.448193 -1.90281
upperneck 37.7636 0.447145 -1.87157
head 15.8885 -0.423153 -0.41165
rclavicle 9.93923e-016 1.19271e-014
rhumerus -33.757 -8.56233 -17.2866
rradius 34.1453
rwrist 5.22057
rhand -20.1202 -44.5275
rfingers 7.12502
rthumb 6.22378 -74.4161
lclavicle 9.93923e-016 1.19271e-014
lhumerus -35.4901 7.45619 12.7812
lradius 27.9404
lwrist 15.3518
lhand -25.8767 -29.5601
lfingers 7.12502
lthumb 0.6648 0.418628
rfemur -100.826 0.673237 27.2811
rtibia 95.4395
rfoot 48.1559 2.03051
rtoes -6.49649
lfemur -29.422 5.95122 -24.4585
ltibia 42.4133
lfoot -17.8974 10.236
ltoes 14.6823
695
root 5.29455 16.8911 1.89089 7.38307 -15.1018 -6.7743
lowerback 21.5132 -0.371461 3.87849
upperback 5.47499 0.377622 1.24168
thorax -6.01955 0.118833 -0.968329
lowerneck -14.9879 -0.441338 -1.84699
upperneck 37.8949 0.456596 -1.89674
head 15.9941 -0.416948 -0.433445
rclavicle 4.4329e-014 -3.93594e-014
rhumerus -33.8079 -8.57058 -17.3303
rradius 34.2339
rwrist 5.5754
rhand -20.0751 -44.2559
rfingers 7.12502
rthumb 6.26732 -74.1432
lclavicle 4.4329e-014 -3.93594e-014
lhumerus -35.3667 7.57923 12.7823
lradius 27.9273
lwrist 15.2915
lhand -26.0097 -28.0651
lfingers 7.12502
lthumb 0.536339 1.91399
rfemur -100.789 0.535275 27.2186
rtibia 95.4829
rfoot 48.1713 2.04448
rtoes -6.35405
lfemur -29.3258 6.00943 -24.5427
ltibia 42.3957
lfoot -17.9198 10.0712
ltoes 14.8506
